# xmcd
#
# Track frame offsets:
#  150
#  19700
#  40975
#  47862
#  64712
#  85687
#  105337
#  134587
#  146362
#  169512
#
# Disc length: 2625 seconds
#
# Revision: 0
# Processed by: cddbd v1.4PL0 Copyright (c) Steve Scherf et al.
# Submitted via: AltoMP3_Maker 3.0
#
DISCID=7c0a3f0a
DTITLE=Tinh Khuc Bat Tu 8 - Nhung bai tho hay pho nhac
DYEAR=1900
DGENRE=
TTITLE0=Tieng Guoc Cuoi Hien Truong
TTITLE1=Thien Thai
TTITLE2=Tho Tieu Muoi
TTITLE3=Cho Toi Yeu
TTITLE4=Mot Thoi Ao Trang
TTITLE5=Cho Long Toi Theo Nhe
TTITLE6=Tinh Me
TTITLE7=Biet Dau Nguon Coi
TTITLE8=Son Nu Ca
TTITLE9=Nhac Em Diu
EXTD=
EXTT0=
EXTT1=
EXTT2=
EXTT3=
EXTT4=
EXTT5=
EXTT6=
EXTT7=
EXTT8=
EXTT9=
PLAYORDER=
